<?xml version="1.0" standalone="no"?>
<!DOCTYPE svg PUBLIC "-//W3C//DTD SVG 20010904//EN"
 "http://www.w3.org/TR/2001/REC-SVG-20010904/DTD/svg10.dtd">
<svg version="1.0" xmlns="http://www.w3.org/2000/svg"
 width="80.000000pt" height="79.000000pt" viewBox="0 0 80.000000 79.000000"
 preserveAspectRatio="xMidYMid meet">
<metadata>
Created by potrace 1.16, written by Peter Selinger 2001-2019
</metadata>
<g transform="translate(0.000000,79.000000) scale(0.100000,-0.100000)"
fill="#000000" stroke="none">
<path d="M435 730 c-52 -52 -64 -60 -97 -60 l-38 0 0 -122 0 -122 -52 49 -53
50 53 -55 c44 -47 52 -62 52 -93 0 -20 -4 -37 -8 -37 -4 0 -31 24 -59 53 l-52
52 -7 113 -7 112 -83 0 -84 0 0 -335 0 -335 207 0 207 0 -52 53 c-34 34 -52
61 -52 77 0 22 6 18 60 -35 33 -33 60 -67 60 -77 0 -17 14 -18 185 -18 l185 0
0 210 0 210 -185 0 -185 0 0 -62 0 -62 -60 59 -60 59 0 63 0 63 60 0 60 0 0
-47 0 -47 45 44 c45 44 47 45 128 51 74 5 70 6 -50 7 -73 1 -133 6 -133 11 0
5 28 34 63 65 l62 56 128 0 127 0 0 55 0 55 -153 0 -153 0 -59 -60z m-135
-472 c0 -15 -3 -28 -7 -28 -4 0 -31 23 -60 52 -44 43 -53 58 -53 87 l0 35 60
-59 c45 -44 60 -66 60 -87z m130 -10 c0 -21 -3 -38 -7 -38 -4 0 -31 23 -60 52
-48 48 -53 56 -53 97 l0 45 60 -59 c52 -52 60 -64 60 -97z m-130 -100 c0 -27
-10 -22 -67 34 -36 36 -53 60 -53 77 0 23 5 20 60 -34 33 -33 60 -67 60 -77z
m130 -20 c0 -15 -3 -28 -7 -28 -4 0 -31 23 -60 52 -44 43 -53 58 -53 87 l0 35
60 -59 c45 -44 60 -66 60 -87z"/>
</g>
</svg>
