<svg width="342" height="184" viewBox="0 0 342 184" fill="none" xmlns="http://www.w3.org/2000/svg">
<path d="M70 93.608C70 89.5432 73.3318 86.248 77.4419 86.248C81.5519 86.248 84.8837 89.5432 84.8837 93.608V109.8H78.9302C73.9982 109.8 70 105.846 70 100.968V93.608Z" fill="white"/>
<path d="M102.744 80.36C102.744 76.2952 106.076 73 110.186 73C114.296 73 117.628 76.2952 117.628 80.36V109.8H111.674C106.742 109.8 102.744 105.846 102.744 100.968V80.36Z" fill="white"/>
<path d="M119.116 89.192C119.116 85.1272 122.448 81.832 126.558 81.832C130.668 81.832 134 85.1272 134 89.192V109.8H128.047C123.114 109.8 119.116 105.846 119.116 100.968V89.192Z" fill="white"/>
<path d="M101.256 86.248V109.8H95.3023C90.3703 109.8 86.3721 105.846 86.3721 100.968V86.248C86.3721 82.1832 89.7039 78.888 93.814 78.888C97.924 78.888 101.256 82.1832 101.256 86.248Z" fill="white"/>
<path d="M150.324 100H148.989C148.889 99.5028 148.709 99.0436 148.449 98.6222C148.193 98.196 147.871 97.8243 147.483 97.5071C147.095 97.1899 146.654 96.9437 146.162 96.7685C145.67 96.5933 145.137 96.5057 144.564 96.5057C143.645 96.5057 142.807 96.7448 142.05 97.223C141.297 97.7012 140.693 98.4044 140.239 99.3324C139.789 100.256 139.564 101.387 139.564 102.727C139.564 104.077 139.789 105.213 140.239 106.136C140.693 107.06 141.297 107.76 142.05 108.239C142.807 108.712 143.645 108.949 144.564 108.949C145.137 108.949 145.67 108.861 146.162 108.686C146.654 108.511 147.095 108.267 147.483 107.955C147.871 107.637 148.193 107.266 148.449 106.839C148.709 106.413 148.889 105.952 148.989 105.455H150.324C150.205 106.122 149.983 106.745 149.656 107.322C149.334 107.895 148.922 108.397 148.42 108.828C147.923 109.259 147.35 109.595 146.702 109.837C146.053 110.078 145.34 110.199 144.564 110.199C143.342 110.199 142.258 109.893 141.311 109.283C140.364 108.667 139.621 107.801 139.081 106.683C138.546 105.566 138.278 104.247 138.278 102.727C138.278 101.207 138.546 99.8887 139.081 98.7713C139.621 97.6539 140.364 96.7898 141.311 96.179C142.258 95.5634 143.342 95.2557 144.564 95.2557C145.34 95.2557 146.053 95.3764 146.702 95.6179C147.35 95.8546 147.923 96.1908 148.42 96.6264C148.922 97.0573 149.334 97.5592 149.656 98.1321C149.983 98.705 150.205 99.3277 150.324 100ZM153.444 110V95.4545H158.138C159.17 95.4545 160.032 95.6416 160.723 96.0156C161.419 96.3849 161.943 96.8987 162.293 97.5568C162.648 98.2102 162.826 98.9607 162.826 99.8082C162.826 100.656 162.648 101.404 162.293 102.053C161.943 102.701 161.422 103.208 160.73 103.572C160.039 103.937 159.182 104.119 158.159 104.119H154.161V102.905H158.124C158.882 102.905 159.511 102.779 160.013 102.528C160.52 102.277 160.896 101.92 161.142 101.456C161.393 100.992 161.519 100.443 161.519 99.8082C161.519 99.1738 161.393 98.6198 161.142 98.1463C160.891 97.6681 160.513 97.2988 160.006 97.0384C159.504 96.7779 158.87 96.6477 158.103 96.6477H154.772V110H153.444ZM159.857 103.438L163.436 110H161.902L158.358 103.438H159.857ZM177.985 102.727C177.985 104.242 177.716 105.561 177.176 106.683C176.636 107.801 175.893 108.667 174.946 109.283C174.003 109.893 172.919 110.199 171.693 110.199C170.467 110.199 169.38 109.893 168.433 109.283C167.491 108.667 166.75 107.801 166.21 106.683C165.675 105.561 165.407 104.242 165.407 102.727C165.407 101.212 165.675 99.8958 166.21 98.7784C166.75 97.6562 167.493 96.7898 168.44 96.179C169.387 95.5634 170.471 95.2557 171.693 95.2557C172.919 95.2557 174.003 95.5634 174.946 96.179C175.893 96.7898 176.636 97.6562 177.176 98.7784C177.716 99.8958 177.985 101.212 177.985 102.727ZM176.693 102.727C176.693 101.425 176.475 100.31 176.039 99.3821C175.604 98.4493 175.01 97.7367 174.257 97.2443C173.504 96.7519 172.649 96.5057 171.693 96.5057C170.741 96.5057 169.889 96.7519 169.136 97.2443C168.383 97.7367 167.787 98.447 167.346 99.375C166.911 100.303 166.693 101.42 166.693 102.727C166.693 104.029 166.911 105.144 167.346 106.072C167.782 107 168.376 107.713 169.129 108.21C169.882 108.703 170.736 108.949 171.693 108.949C172.649 108.949 173.504 108.703 174.257 108.21C175.014 107.718 175.611 107.008 176.047 106.08C176.482 105.147 176.698 104.029 176.693 102.727ZM189.095 99.0909C189.015 98.2812 188.657 97.6373 188.023 97.1591C187.388 96.6809 186.59 96.4418 185.629 96.4418C184.952 96.4418 184.356 96.5578 183.839 96.7898C183.328 97.0218 182.926 97.3437 182.632 97.7557C182.343 98.1629 182.199 98.6269 182.199 99.1477C182.199 99.5312 182.282 99.8674 182.447 100.156C182.613 100.445 182.836 100.694 183.115 100.902C183.399 101.106 183.712 101.281 184.053 101.428C184.398 101.574 184.746 101.697 185.097 101.797L186.631 102.237C187.095 102.365 187.559 102.528 188.023 102.727C188.487 102.926 188.911 103.177 189.294 103.48C189.682 103.778 189.992 104.145 190.224 104.581C190.461 105.012 190.58 105.53 190.58 106.136C190.58 106.913 190.378 107.611 189.976 108.232C189.573 108.852 188.996 109.344 188.243 109.709C187.49 110.069 186.588 110.249 185.537 110.249C184.547 110.249 183.688 110.085 182.959 109.759C182.23 109.427 181.657 108.97 181.24 108.388C180.823 107.805 180.589 107.131 180.537 106.364H181.901C181.948 106.937 182.137 107.422 182.469 107.82C182.8 108.217 183.231 108.52 183.761 108.729C184.292 108.932 184.884 109.034 185.537 109.034C186.261 109.034 186.905 108.913 187.469 108.672C188.037 108.426 188.482 108.085 188.804 107.649C189.131 107.209 189.294 106.697 189.294 106.115C189.294 105.623 189.166 105.211 188.911 104.879C188.655 104.543 188.297 104.261 187.838 104.034C187.384 103.807 186.856 103.606 186.254 103.43L184.514 102.919C183.373 102.578 182.488 102.107 181.858 101.506C181.228 100.904 180.913 100.137 180.913 99.2045C180.913 98.4233 181.122 97.7367 181.538 97.1449C181.96 96.5483 182.528 96.0843 183.243 95.7528C183.963 95.4167 184.77 95.2486 185.665 95.2486C186.569 95.2486 187.369 95.4143 188.065 95.7457C188.761 96.0772 189.313 96.5341 189.72 97.1165C190.132 97.6941 190.352 98.3523 190.381 99.0909H189.095ZM201.673 99.0909C201.593 98.2812 201.235 97.6373 200.601 97.1591C199.966 96.6809 199.169 96.4418 198.207 96.4418C197.53 96.4418 196.934 96.5578 196.418 96.7898C195.906 97.0218 195.504 97.3437 195.21 97.7557C194.921 98.1629 194.777 98.6269 194.777 99.1477C194.777 99.5312 194.86 99.8674 195.026 100.156C195.191 100.445 195.414 100.694 195.693 100.902C195.977 101.106 196.29 101.281 196.631 101.428C196.976 101.574 197.324 101.697 197.675 101.797L199.209 102.237C199.673 102.365 200.137 102.528 200.601 102.727C201.065 102.926 201.489 103.177 201.872 103.48C202.26 103.778 202.571 104.145 202.803 104.581C203.039 105.012 203.158 105.53 203.158 106.136C203.158 106.913 202.956 107.611 202.554 108.232C202.152 108.852 201.574 109.344 200.821 109.709C200.068 110.069 199.166 110.249 198.115 110.249C197.125 110.249 196.266 110.085 195.537 109.759C194.808 109.427 194.235 108.97 193.818 108.388C193.402 107.805 193.167 107.131 193.115 106.364H194.479C194.526 106.937 194.715 107.422 195.047 107.82C195.378 108.217 195.809 108.52 196.339 108.729C196.87 108.932 197.462 109.034 198.115 109.034C198.839 109.034 199.483 108.913 200.047 108.672C200.615 108.426 201.06 108.085 201.382 107.649C201.709 107.209 201.872 106.697 201.872 106.115C201.872 105.623 201.744 105.211 201.489 104.879C201.233 104.543 200.875 104.261 200.416 104.034C199.962 103.807 199.434 103.606 198.832 103.43L197.092 102.919C195.951 102.578 195.066 102.107 194.436 101.506C193.806 100.904 193.491 100.137 193.491 99.2045C193.491 98.4233 193.7 97.7367 194.116 97.1449C194.538 96.5483 195.106 96.0843 195.821 95.7528C196.541 95.4167 197.348 95.2486 198.243 95.2486C199.147 95.2486 199.947 95.4143 200.643 95.7457C201.339 96.0772 201.891 96.5341 202.298 97.1165C202.71 97.6941 202.93 98.3523 202.959 99.0909H201.673Z" fill="white"/>
<path d="M138.051 77.6477V76.4545H148.598V77.6477H143.989V91H142.661V77.6477H138.051ZM151.588 91V76.4545H160.026V77.6477H152.916V83.1236H159.578V84.3168H152.916V89.8068H160.168V91H151.588ZM174.855 81H173.52C173.42 80.5028 173.241 80.0436 172.98 79.6222C172.724 79.196 172.402 78.8243 172.014 78.5071C171.626 78.1899 171.186 77.9437 170.693 77.7685C170.201 77.5933 169.668 77.5057 169.095 77.5057C168.177 77.5057 167.339 77.7448 166.581 78.223C165.828 78.7012 165.224 79.4044 164.77 80.3324C164.32 81.2557 164.095 82.3873 164.095 83.7273C164.095 85.0767 164.32 86.2131 164.77 87.1364C165.224 88.0597 165.828 88.7604 166.581 89.2386C167.339 89.7121 168.177 89.9489 169.095 89.9489C169.668 89.9489 170.201 89.8613 170.693 89.6861C171.186 89.5109 171.626 89.267 172.014 88.9545C172.402 88.6373 172.724 88.2656 172.98 87.8395C173.241 87.4134 173.42 86.9517 173.52 86.4545H174.855C174.737 87.1222 174.514 87.7448 174.188 88.3224C173.866 88.8954 173.454 89.3973 172.952 89.8281C172.455 90.259 171.882 90.5952 171.233 90.8366C170.584 91.0781 169.872 91.1989 169.095 91.1989C167.874 91.1989 166.789 90.8935 165.842 90.2827C164.895 89.6671 164.152 88.8007 163.612 87.6832C163.077 86.5658 162.81 85.2472 162.81 83.7273C162.81 82.2074 163.077 80.8887 163.612 79.7713C164.152 78.6539 164.895 77.7898 165.842 77.179C166.789 76.5634 167.874 76.2557 169.095 76.2557C169.872 76.2557 170.584 76.3764 171.233 76.6179C171.882 76.8546 172.455 77.1908 172.952 77.6264C173.454 78.0573 173.866 78.5592 174.188 79.1321C174.514 79.705 174.737 80.3277 174.855 81ZM177.975 91V76.4545H179.303V83.1236H187.556V76.4545H188.884V91H187.556V84.3168H179.303V91H177.975ZM192.74 91V76.4545H197.435C198.467 76.4545 199.329 76.6534 200.02 77.0511C200.716 77.4441 201.239 77.9792 201.59 78.6562C201.945 79.3333 202.123 80.0956 202.123 80.9432C202.123 81.7907 201.947 82.5554 201.597 83.2372C201.247 83.9143 200.726 84.4517 200.034 84.8494C199.343 85.2424 198.484 85.4389 197.456 85.4389H193.763V84.2457H197.421C198.183 84.2457 198.815 84.1037 199.317 83.8196C199.819 83.5308 200.193 83.1378 200.439 82.6406C200.69 82.1435 200.816 81.5777 200.816 80.9432C200.816 80.3087 200.69 79.7429 200.439 79.2457C200.193 78.7486 199.817 78.358 199.31 78.0739C198.808 77.7898 198.171 77.6477 197.4 77.6477H194.069V91H192.74ZM217.165 83.7273C217.165 85.2424 216.895 86.5611 216.355 87.6832C215.816 88.8007 215.072 89.6671 214.125 90.2827C213.183 90.8935 212.099 91.1989 210.873 91.1989C209.646 91.1989 208.56 90.8935 207.613 90.2827C206.67 89.6671 205.929 88.8007 205.39 87.6832C204.855 86.5611 204.587 85.2424 204.587 83.7273C204.587 82.2121 204.855 80.8958 205.39 79.7784C205.929 78.6562 206.673 77.7898 207.62 77.179C208.567 76.5634 209.651 76.2557 210.873 76.2557C212.099 76.2557 213.183 76.5634 214.125 77.179C215.072 77.7898 215.816 78.6562 216.355 79.7784C216.895 80.8958 217.165 82.2121 217.165 83.7273ZM215.873 83.7273C215.873 82.4252 215.655 81.3101 215.219 80.3821C214.783 79.4493 214.189 78.7367 213.436 78.2443C212.684 77.7519 211.829 77.5057 210.873 77.5057C209.921 77.5057 209.069 77.7519 208.316 78.2443C207.563 78.7367 206.966 79.447 206.526 80.375C206.09 81.303 205.873 82.4205 205.873 83.7273C205.873 85.0294 206.09 86.1444 206.526 87.0724C206.962 88.0005 207.556 88.7131 208.309 89.2102C209.061 89.7027 209.916 89.9489 210.873 89.9489C211.829 89.9489 212.684 89.7027 213.436 89.2102C214.194 88.7178 214.791 88.0076 215.226 87.0795C215.662 86.1468 215.877 85.0294 215.873 83.7273ZM220.377 91V76.4545H221.705V89.8068H228.637V91H220.377ZM242.985 83.7273C242.985 85.2424 242.716 86.5611 242.176 87.6832C241.636 88.8007 240.893 89.6671 239.946 90.2827C239.003 90.8935 237.919 91.1989 236.693 91.1989C235.467 91.1989 234.38 90.8935 233.433 90.2827C232.491 89.6671 231.75 88.8007 231.21 87.6832C230.675 86.5611 230.407 85.2424 230.407 83.7273C230.407 82.2121 230.675 80.8958 231.21 79.7784C231.75 78.6562 232.493 77.7898 233.44 77.179C234.387 76.5634 235.471 76.2557 236.693 76.2557C237.919 76.2557 239.003 76.5634 239.946 77.179C240.893 77.7898 241.636 78.6562 242.176 79.7784C242.716 80.8958 242.985 82.2121 242.985 83.7273ZM241.693 83.7273C241.693 82.4252 241.475 81.3101 241.039 80.3821C240.604 79.4493 240.01 78.7367 239.257 78.2443C238.504 77.7519 237.649 77.5057 236.693 77.5057C235.741 77.5057 234.889 77.7519 234.136 78.2443C233.383 78.7367 232.787 79.447 232.346 80.375C231.911 81.303 231.693 82.4205 231.693 83.7273C231.693 85.0294 231.911 86.1444 232.346 87.0724C232.782 88.0005 233.376 88.7131 234.129 89.2102C234.882 89.7027 235.736 89.9489 236.693 89.9489C237.649 89.9489 238.504 89.7027 239.257 89.2102C240.014 88.7178 240.611 88.0076 241.047 87.0795C241.482 86.1468 241.698 85.0294 241.693 83.7273ZM256.261 81C256.129 80.517 255.935 80.0649 255.679 79.6435C255.423 79.2173 255.106 78.8456 254.727 78.5284C254.353 78.2064 253.92 77.9555 253.428 77.7756C252.94 77.5956 252.395 77.5057 251.794 77.5057C250.847 77.5057 250 77.7519 249.251 78.2443C248.503 78.7367 247.911 79.447 247.476 80.375C247.045 81.303 246.83 82.4205 246.83 83.7273C246.83 85.0294 247.047 86.1444 247.483 87.0724C247.919 88.0005 248.515 88.7131 249.273 89.2102C250.035 89.7027 250.906 89.9489 251.886 89.9489C252.781 89.9489 253.572 89.75 254.259 89.3523C254.945 88.9545 255.48 88.3864 255.864 87.6477C256.252 86.9091 256.441 86.0308 256.432 85.0128L256.858 85.1477H252.199V83.9545H257.724V85.1477C257.724 86.3883 257.473 87.4607 256.972 88.3651C256.47 89.2694 255.781 89.9678 254.905 90.4602C254.029 90.9527 253.023 91.1989 251.886 91.1989C250.617 91.1989 249.507 90.8935 248.555 90.2827C247.604 89.6671 246.863 88.8007 246.332 87.6832C245.807 86.5611 245.544 85.2424 245.544 83.7273C245.544 82.5862 245.696 81.5563 245.999 80.6378C246.302 79.7192 246.73 78.9332 247.284 78.2798C247.843 77.6264 248.503 77.1269 249.266 76.7812C250.028 76.4309 250.871 76.2557 251.794 76.2557C252.589 76.2557 253.316 76.3812 253.974 76.6321C254.637 76.883 255.22 77.2287 255.722 77.669C256.228 78.1046 256.643 78.6089 256.964 79.1818C257.291 79.75 257.511 80.3561 257.625 81H256.261ZM259.209 76.4545H260.743L265.054 83.358H265.182L269.493 76.4545H271.027L265.778 84.7003V91H264.457V84.7003L259.209 76.4545Z" fill="white"/>
<path d="M1 183H341" stroke="white" stroke-opacity="0.29" stroke-linecap="round" stroke-dasharray="7 7"/>
<path d="M1 1H171" stroke="white" stroke-opacity="0.29" stroke-linecap="round" stroke-dasharray="7 7"/>
<path d="M171 63L171 2" stroke="white" stroke-opacity="0.29" stroke-linecap="round" stroke-dasharray="7 7"/>
<path d="M276 95L341 95" stroke="white" stroke-opacity="0.29" stroke-linecap="round" stroke-dasharray="7 7"/>
</svg>
